%
M48
M72
T01C0.0320
T02C0.0354
T03C0.0394
T04C0.0400
T05C0.0433
T06C0.0440
T07C0.0472
T08C0.1260
%
T01
X24325Y16200
X24325Y17200
X25925Y17200
X25925Y16200
X27425Y15800
X27425Y14800
X27425Y16800
X27425Y17800
X30425Y17800
X30425Y16800
X30425Y15800
X30425Y14800
X32125Y15400
X32125Y16400
X34525Y16000
X34525Y15000
T02
X33925Y18100
X23925Y18100
T03
X2580Y9800
T04
X4025Y13300
X4025Y14300
X4025Y15300
X3455Y18800
X4595Y18800
X8525Y15800
X8525Y14800
X8525Y13800
X8525Y12800
X8525Y11800
X8525Y10800
X8525Y9800
X8525Y8800
X8525Y7800
X8525Y6800
X8525Y5800
X8525Y4800
X13400Y7238
X14525Y6800
X14525Y5800
X14525Y4800
X14525Y7800
X14525Y8800
X13400Y8238
X14525Y9800
X14525Y10800
X14525Y11800
X13400Y11363
X13400Y12363
X14525Y12800
X14525Y13800
X14525Y14800
X14525Y15800
X14025Y16800
X13025Y16800
X12025Y16800
X11025Y16800
X10025Y16800
X9025Y16800
X9525Y18800
X10525Y18900
X11525Y18800
X12525Y18900
X13525Y18800
X16355Y19050
X17495Y19050
X19025Y16800
X19025Y15800
X19025Y14800
X19025Y13800
X19025Y12800
X19025Y11800
X19025Y10800
X23725Y14900
X25925Y14900
X27725Y19900
X30125Y19900
X16325Y16100
X8525Y22500
X7525Y22500
X6525Y22500
X5525Y22500
X4525Y22500
X3525Y22500
X2525Y22500
T05
X4463Y27092
X6325Y27092
X8164Y27096
X11463Y27092
X13325Y27092
X15164Y27096
X18463Y27092
X20325Y27092
X22164Y27096
X25463Y27092
X27325Y27092
X29164Y27096
X32463Y27292
X34325Y27292
X36164Y27296
X5297Y9800
X4509Y9072
X4509Y10528
T06
X33325Y15100
X33325Y19100
T07
X3525Y9800
T08
X1925Y4500
X1925Y20100
X925Y22300
X925Y28900
X20725Y20100
X22925Y20300
X22925Y13700
X20725Y4500
X35725Y13900
X35725Y20300
X37125Y22500
X37125Y28900
M30
