G75*
%MOIN*%
%OFA0B0*%
%FSLAX24Y24*%
%IPPOS*%
%LPD*%
%AMOC8*
5,1,8,0,0,1.08239X$1,22.5*
%
%ADD10C,0.0000*%
%ADD11C,0.0050*%
%ADD12C,0.0010*%
%ADD13C,0.0740*%
%ADD14C,0.0760*%
%ADD15C,0.0650*%
%ADD16C,0.0520*%
%ADD17OC8,0.0660*%
%ADD18C,0.0660*%
%ADD19OC8,0.0630*%
%ADD20C,0.0630*%
%ADD21OC8,0.0760*%
D10*
X000925Y003500D02*
X000925Y021196D01*
X021695Y021196D01*
X021695Y003500D01*
X000925Y003500D01*
X001295Y004500D02*
X001297Y004550D01*
X001303Y004600D01*
X001313Y004649D01*
X001327Y004697D01*
X001344Y004744D01*
X001365Y004789D01*
X001390Y004833D01*
X001418Y004874D01*
X001450Y004913D01*
X001484Y004950D01*
X001521Y004984D01*
X001561Y005014D01*
X001603Y005041D01*
X001647Y005065D01*
X001693Y005086D01*
X001740Y005102D01*
X001788Y005115D01*
X001838Y005124D01*
X001887Y005129D01*
X001938Y005130D01*
X001988Y005127D01*
X002037Y005120D01*
X002086Y005109D01*
X002134Y005094D01*
X002180Y005076D01*
X002225Y005054D01*
X002268Y005028D01*
X002309Y004999D01*
X002348Y004967D01*
X002384Y004932D01*
X002416Y004894D01*
X002446Y004854D01*
X002473Y004811D01*
X002496Y004767D01*
X002515Y004721D01*
X002531Y004673D01*
X002543Y004624D01*
X002551Y004575D01*
X002555Y004525D01*
X002555Y004475D01*
X002551Y004425D01*
X002543Y004376D01*
X002531Y004327D01*
X002515Y004279D01*
X002496Y004233D01*
X002473Y004189D01*
X002446Y004146D01*
X002416Y004106D01*
X002384Y004068D01*
X002348Y004033D01*
X002309Y004001D01*
X002268Y003972D01*
X002225Y003946D01*
X002180Y003924D01*
X002134Y003906D01*
X002086Y003891D01*
X002037Y003880D01*
X001988Y003873D01*
X001938Y003870D01*
X001887Y003871D01*
X001838Y003876D01*
X001788Y003885D01*
X001740Y003898D01*
X001693Y003914D01*
X001647Y003935D01*
X001603Y003959D01*
X001561Y003986D01*
X001521Y004016D01*
X001484Y004050D01*
X001450Y004087D01*
X001418Y004126D01*
X001390Y004167D01*
X001365Y004211D01*
X001344Y004256D01*
X001327Y004303D01*
X001313Y004351D01*
X001303Y004400D01*
X001297Y004450D01*
X001295Y004500D01*
X003289Y009800D02*
X003291Y009830D01*
X003297Y009860D01*
X003306Y009889D01*
X003319Y009916D01*
X003336Y009941D01*
X003355Y009964D01*
X003378Y009985D01*
X003403Y010002D01*
X003429Y010016D01*
X003458Y010026D01*
X003487Y010033D01*
X003517Y010036D01*
X003548Y010035D01*
X003578Y010030D01*
X003607Y010021D01*
X003634Y010009D01*
X003660Y009994D01*
X003684Y009975D01*
X003705Y009953D01*
X003723Y009929D01*
X003738Y009902D01*
X003749Y009874D01*
X003757Y009845D01*
X003761Y009815D01*
X003761Y009785D01*
X003757Y009755D01*
X003749Y009726D01*
X003738Y009698D01*
X003723Y009671D01*
X003705Y009647D01*
X003684Y009625D01*
X003660Y009606D01*
X003634Y009591D01*
X003607Y009579D01*
X003578Y009570D01*
X003548Y009565D01*
X003517Y009564D01*
X003487Y009567D01*
X003458Y009574D01*
X003429Y009584D01*
X003403Y009598D01*
X003378Y009615D01*
X003355Y009636D01*
X003336Y009659D01*
X003319Y009684D01*
X003306Y009711D01*
X003297Y009740D01*
X003291Y009770D01*
X003289Y009800D01*
X001295Y020100D02*
X001297Y020150D01*
X001303Y020200D01*
X001313Y020249D01*
X001327Y020297D01*
X001344Y020344D01*
X001365Y020389D01*
X001390Y020433D01*
X001418Y020474D01*
X001450Y020513D01*
X001484Y020550D01*
X001521Y020584D01*
X001561Y020614D01*
X001603Y020641D01*
X001647Y020665D01*
X001693Y020686D01*
X001740Y020702D01*
X001788Y020715D01*
X001838Y020724D01*
X001887Y020729D01*
X001938Y020730D01*
X001988Y020727D01*
X002037Y020720D01*
X002086Y020709D01*
X002134Y020694D01*
X002180Y020676D01*
X002225Y020654D01*
X002268Y020628D01*
X002309Y020599D01*
X002348Y020567D01*
X002384Y020532D01*
X002416Y020494D01*
X002446Y020454D01*
X002473Y020411D01*
X002496Y020367D01*
X002515Y020321D01*
X002531Y020273D01*
X002543Y020224D01*
X002551Y020175D01*
X002555Y020125D01*
X002555Y020075D01*
X002551Y020025D01*
X002543Y019976D01*
X002531Y019927D01*
X002515Y019879D01*
X002496Y019833D01*
X002473Y019789D01*
X002446Y019746D01*
X002416Y019706D01*
X002384Y019668D01*
X002348Y019633D01*
X002309Y019601D01*
X002268Y019572D01*
X002225Y019546D01*
X002180Y019524D01*
X002134Y019506D01*
X002086Y019491D01*
X002037Y019480D01*
X001988Y019473D01*
X001938Y019470D01*
X001887Y019471D01*
X001838Y019476D01*
X001788Y019485D01*
X001740Y019498D01*
X001693Y019514D01*
X001647Y019535D01*
X001603Y019559D01*
X001561Y019586D01*
X001521Y019616D01*
X001484Y019650D01*
X001450Y019687D01*
X001418Y019726D01*
X001390Y019767D01*
X001365Y019811D01*
X001344Y019856D01*
X001327Y019903D01*
X001313Y019951D01*
X001303Y020000D01*
X001297Y020050D01*
X001295Y020100D01*
X000295Y022300D02*
X000297Y022350D01*
X000303Y022400D01*
X000313Y022449D01*
X000327Y022497D01*
X000344Y022544D01*
X000365Y022589D01*
X000390Y022633D01*
X000418Y022674D01*
X000450Y022713D01*
X000484Y022750D01*
X000521Y022784D01*
X000561Y022814D01*
X000603Y022841D01*
X000647Y022865D01*
X000693Y022886D01*
X000740Y022902D01*
X000788Y022915D01*
X000838Y022924D01*
X000887Y022929D01*
X000938Y022930D01*
X000988Y022927D01*
X001037Y022920D01*
X001086Y022909D01*
X001134Y022894D01*
X001180Y022876D01*
X001225Y022854D01*
X001268Y022828D01*
X001309Y022799D01*
X001348Y022767D01*
X001384Y022732D01*
X001416Y022694D01*
X001446Y022654D01*
X001473Y022611D01*
X001496Y022567D01*
X001515Y022521D01*
X001531Y022473D01*
X001543Y022424D01*
X001551Y022375D01*
X001555Y022325D01*
X001555Y022275D01*
X001551Y022225D01*
X001543Y022176D01*
X001531Y022127D01*
X001515Y022079D01*
X001496Y022033D01*
X001473Y021989D01*
X001446Y021946D01*
X001416Y021906D01*
X001384Y021868D01*
X001348Y021833D01*
X001309Y021801D01*
X001268Y021772D01*
X001225Y021746D01*
X001180Y021724D01*
X001134Y021706D01*
X001086Y021691D01*
X001037Y021680D01*
X000988Y021673D01*
X000938Y021670D01*
X000887Y021671D01*
X000838Y021676D01*
X000788Y021685D01*
X000740Y021698D01*
X000693Y021714D01*
X000647Y021735D01*
X000603Y021759D01*
X000561Y021786D01*
X000521Y021816D01*
X000484Y021850D01*
X000450Y021887D01*
X000418Y021926D01*
X000390Y021967D01*
X000365Y022011D01*
X000344Y022056D01*
X000327Y022103D01*
X000313Y022151D01*
X000303Y022200D01*
X000297Y022250D01*
X000295Y022300D01*
X000295Y028900D02*
X000297Y028950D01*
X000303Y029000D01*
X000313Y029049D01*
X000327Y029097D01*
X000344Y029144D01*
X000365Y029189D01*
X000390Y029233D01*
X000418Y029274D01*
X000450Y029313D01*
X000484Y029350D01*
X000521Y029384D01*
X000561Y029414D01*
X000603Y029441D01*
X000647Y029465D01*
X000693Y029486D01*
X000740Y029502D01*
X000788Y029515D01*
X000838Y029524D01*
X000887Y029529D01*
X000938Y029530D01*
X000988Y029527D01*
X001037Y029520D01*
X001086Y029509D01*
X001134Y029494D01*
X001180Y029476D01*
X001225Y029454D01*
X001268Y029428D01*
X001309Y029399D01*
X001348Y029367D01*
X001384Y029332D01*
X001416Y029294D01*
X001446Y029254D01*
X001473Y029211D01*
X001496Y029167D01*
X001515Y029121D01*
X001531Y029073D01*
X001543Y029024D01*
X001551Y028975D01*
X001555Y028925D01*
X001555Y028875D01*
X001551Y028825D01*
X001543Y028776D01*
X001531Y028727D01*
X001515Y028679D01*
X001496Y028633D01*
X001473Y028589D01*
X001446Y028546D01*
X001416Y028506D01*
X001384Y028468D01*
X001348Y028433D01*
X001309Y028401D01*
X001268Y028372D01*
X001225Y028346D01*
X001180Y028324D01*
X001134Y028306D01*
X001086Y028291D01*
X001037Y028280D01*
X000988Y028273D01*
X000938Y028270D01*
X000887Y028271D01*
X000838Y028276D01*
X000788Y028285D01*
X000740Y028298D01*
X000693Y028314D01*
X000647Y028335D01*
X000603Y028359D01*
X000561Y028386D01*
X000521Y028416D01*
X000484Y028450D01*
X000450Y028487D01*
X000418Y028526D01*
X000390Y028567D01*
X000365Y028611D01*
X000344Y028656D01*
X000327Y028703D01*
X000313Y028751D01*
X000303Y028800D01*
X000297Y028850D01*
X000295Y028900D01*
X020095Y020100D02*
X020097Y020150D01*
X020103Y020200D01*
X020113Y020249D01*
X020127Y020297D01*
X020144Y020344D01*
X020165Y020389D01*
X020190Y020433D01*
X020218Y020474D01*
X020250Y020513D01*
X020284Y020550D01*
X020321Y020584D01*
X020361Y020614D01*
X020403Y020641D01*
X020447Y020665D01*
X020493Y020686D01*
X020540Y020702D01*
X020588Y020715D01*
X020638Y020724D01*
X020687Y020729D01*
X020738Y020730D01*
X020788Y020727D01*
X020837Y020720D01*
X020886Y020709D01*
X020934Y020694D01*
X020980Y020676D01*
X021025Y020654D01*
X021068Y020628D01*
X021109Y020599D01*
X021148Y020567D01*
X021184Y020532D01*
X021216Y020494D01*
X021246Y020454D01*
X021273Y020411D01*
X021296Y020367D01*
X021315Y020321D01*
X021331Y020273D01*
X021343Y020224D01*
X021351Y020175D01*
X021355Y020125D01*
X021355Y020075D01*
X021351Y020025D01*
X021343Y019976D01*
X021331Y019927D01*
X021315Y019879D01*
X021296Y019833D01*
X021273Y019789D01*
X021246Y019746D01*
X021216Y019706D01*
X021184Y019668D01*
X021148Y019633D01*
X021109Y019601D01*
X021068Y019572D01*
X021025Y019546D01*
X020980Y019524D01*
X020934Y019506D01*
X020886Y019491D01*
X020837Y019480D01*
X020788Y019473D01*
X020738Y019470D01*
X020687Y019471D01*
X020638Y019476D01*
X020588Y019485D01*
X020540Y019498D01*
X020493Y019514D01*
X020447Y019535D01*
X020403Y019559D01*
X020361Y019586D01*
X020321Y019616D01*
X020284Y019650D01*
X020250Y019687D01*
X020218Y019726D01*
X020190Y019767D01*
X020165Y019811D01*
X020144Y019856D01*
X020127Y019903D01*
X020113Y019951D01*
X020103Y020000D01*
X020097Y020050D01*
X020095Y020100D01*
X022295Y020300D02*
X022297Y020350D01*
X022303Y020400D01*
X022313Y020449D01*
X022327Y020497D01*
X022344Y020544D01*
X022365Y020589D01*
X022390Y020633D01*
X022418Y020674D01*
X022450Y020713D01*
X022484Y020750D01*
X022521Y020784D01*
X022561Y020814D01*
X022603Y020841D01*
X022647Y020865D01*
X022693Y020886D01*
X022740Y020902D01*
X022788Y020915D01*
X022838Y020924D01*
X022887Y020929D01*
X022938Y020930D01*
X022988Y020927D01*
X023037Y020920D01*
X023086Y020909D01*
X023134Y020894D01*
X023180Y020876D01*
X023225Y020854D01*
X023268Y020828D01*
X023309Y020799D01*
X023348Y020767D01*
X023384Y020732D01*
X023416Y020694D01*
X023446Y020654D01*
X023473Y020611D01*
X023496Y020567D01*
X023515Y020521D01*
X023531Y020473D01*
X023543Y020424D01*
X023551Y020375D01*
X023555Y020325D01*
X023555Y020275D01*
X023551Y020225D01*
X023543Y020176D01*
X023531Y020127D01*
X023515Y020079D01*
X023496Y020033D01*
X023473Y019989D01*
X023446Y019946D01*
X023416Y019906D01*
X023384Y019868D01*
X023348Y019833D01*
X023309Y019801D01*
X023268Y019772D01*
X023225Y019746D01*
X023180Y019724D01*
X023134Y019706D01*
X023086Y019691D01*
X023037Y019680D01*
X022988Y019673D01*
X022938Y019670D01*
X022887Y019671D01*
X022838Y019676D01*
X022788Y019685D01*
X022740Y019698D01*
X022693Y019714D01*
X022647Y019735D01*
X022603Y019759D01*
X022561Y019786D01*
X022521Y019816D01*
X022484Y019850D01*
X022450Y019887D01*
X022418Y019926D01*
X022390Y019967D01*
X022365Y020011D01*
X022344Y020056D01*
X022327Y020103D01*
X022313Y020151D01*
X022303Y020200D01*
X022297Y020250D01*
X022295Y020300D01*
X022295Y013700D02*
X022297Y013750D01*
X022303Y013800D01*
X022313Y013849D01*
X022327Y013897D01*
X022344Y013944D01*
X022365Y013989D01*
X022390Y014033D01*
X022418Y014074D01*
X022450Y014113D01*
X022484Y014150D01*
X022521Y014184D01*
X022561Y014214D01*
X022603Y014241D01*
X022647Y014265D01*
X022693Y014286D01*
X022740Y014302D01*
X022788Y014315D01*
X022838Y014324D01*
X022887Y014329D01*
X022938Y014330D01*
X022988Y014327D01*
X023037Y014320D01*
X023086Y014309D01*
X023134Y014294D01*
X023180Y014276D01*
X023225Y014254D01*
X023268Y014228D01*
X023309Y014199D01*
X023348Y014167D01*
X023384Y014132D01*
X023416Y014094D01*
X023446Y014054D01*
X023473Y014011D01*
X023496Y013967D01*
X023515Y013921D01*
X023531Y013873D01*
X023543Y013824D01*
X023551Y013775D01*
X023555Y013725D01*
X023555Y013675D01*
X023551Y013625D01*
X023543Y013576D01*
X023531Y013527D01*
X023515Y013479D01*
X023496Y013433D01*
X023473Y013389D01*
X023446Y013346D01*
X023416Y013306D01*
X023384Y013268D01*
X023348Y013233D01*
X023309Y013201D01*
X023268Y013172D01*
X023225Y013146D01*
X023180Y013124D01*
X023134Y013106D01*
X023086Y013091D01*
X023037Y013080D01*
X022988Y013073D01*
X022938Y013070D01*
X022887Y013071D01*
X022838Y013076D01*
X022788Y013085D01*
X022740Y013098D01*
X022693Y013114D01*
X022647Y013135D01*
X022603Y013159D01*
X022561Y013186D01*
X022521Y013216D01*
X022484Y013250D01*
X022450Y013287D01*
X022418Y013326D01*
X022390Y013367D01*
X022365Y013411D01*
X022344Y013456D01*
X022327Y013503D01*
X022313Y013551D01*
X022303Y013600D01*
X022297Y013650D01*
X022295Y013700D01*
X020095Y004500D02*
X020097Y004550D01*
X020103Y004600D01*
X020113Y004649D01*
X020127Y004697D01*
X020144Y004744D01*
X020165Y004789D01*
X020190Y004833D01*
X020218Y004874D01*
X020250Y004913D01*
X020284Y004950D01*
X020321Y004984D01*
X020361Y005014D01*
X020403Y005041D01*
X020447Y005065D01*
X020493Y005086D01*
X020540Y005102D01*
X020588Y005115D01*
X020638Y005124D01*
X020687Y005129D01*
X020738Y005130D01*
X020788Y005127D01*
X020837Y005120D01*
X020886Y005109D01*
X020934Y005094D01*
X020980Y005076D01*
X021025Y005054D01*
X021068Y005028D01*
X021109Y004999D01*
X021148Y004967D01*
X021184Y004932D01*
X021216Y004894D01*
X021246Y004854D01*
X021273Y004811D01*
X021296Y004767D01*
X021315Y004721D01*
X021331Y004673D01*
X021343Y004624D01*
X021351Y004575D01*
X021355Y004525D01*
X021355Y004475D01*
X021351Y004425D01*
X021343Y004376D01*
X021331Y004327D01*
X021315Y004279D01*
X021296Y004233D01*
X021273Y004189D01*
X021246Y004146D01*
X021216Y004106D01*
X021184Y004068D01*
X021148Y004033D01*
X021109Y004001D01*
X021068Y003972D01*
X021025Y003946D01*
X020980Y003924D01*
X020934Y003906D01*
X020886Y003891D01*
X020837Y003880D01*
X020788Y003873D01*
X020738Y003870D01*
X020687Y003871D01*
X020638Y003876D01*
X020588Y003885D01*
X020540Y003898D01*
X020493Y003914D01*
X020447Y003935D01*
X020403Y003959D01*
X020361Y003986D01*
X020321Y004016D01*
X020284Y004050D01*
X020250Y004087D01*
X020218Y004126D01*
X020190Y004167D01*
X020165Y004211D01*
X020144Y004256D01*
X020127Y004303D01*
X020113Y004351D01*
X020103Y004400D01*
X020097Y004450D01*
X020095Y004500D01*
X035095Y013900D02*
X035097Y013950D01*
X035103Y014000D01*
X035113Y014049D01*
X035127Y014097D01*
X035144Y014144D01*
X035165Y014189D01*
X035190Y014233D01*
X035218Y014274D01*
X035250Y014313D01*
X035284Y014350D01*
X035321Y014384D01*
X035361Y014414D01*
X035403Y014441D01*
X035447Y014465D01*
X035493Y014486D01*
X035540Y014502D01*
X035588Y014515D01*
X035638Y014524D01*
X035687Y014529D01*
X035738Y014530D01*
X035788Y014527D01*
X035837Y014520D01*
X035886Y014509D01*
X035934Y014494D01*
X035980Y014476D01*
X036025Y014454D01*
X036068Y014428D01*
X036109Y014399D01*
X036148Y014367D01*
X036184Y014332D01*
X036216Y014294D01*
X036246Y014254D01*
X036273Y014211D01*
X036296Y014167D01*
X036315Y014121D01*
X036331Y014073D01*
X036343Y014024D01*
X036351Y013975D01*
X036355Y013925D01*
X036355Y013875D01*
X036351Y013825D01*
X036343Y013776D01*
X036331Y013727D01*
X036315Y013679D01*
X036296Y013633D01*
X036273Y013589D01*
X036246Y013546D01*
X036216Y013506D01*
X036184Y013468D01*
X036148Y013433D01*
X036109Y013401D01*
X036068Y013372D01*
X036025Y013346D01*
X035980Y013324D01*
X035934Y013306D01*
X035886Y013291D01*
X035837Y013280D01*
X035788Y013273D01*
X035738Y013270D01*
X035687Y013271D01*
X035638Y013276D01*
X035588Y013285D01*
X035540Y013298D01*
X035493Y013314D01*
X035447Y013335D01*
X035403Y013359D01*
X035361Y013386D01*
X035321Y013416D01*
X035284Y013450D01*
X035250Y013487D01*
X035218Y013526D01*
X035190Y013567D01*
X035165Y013611D01*
X035144Y013656D01*
X035127Y013703D01*
X035113Y013751D01*
X035103Y013800D01*
X035097Y013850D01*
X035095Y013900D01*
X035095Y020300D02*
X035097Y020350D01*
X035103Y020400D01*
X035113Y020449D01*
X035127Y020497D01*
X035144Y020544D01*
X035165Y020589D01*
X035190Y020633D01*
X035218Y020674D01*
X035250Y020713D01*
X035284Y020750D01*
X035321Y020784D01*
X035361Y020814D01*
X035403Y020841D01*
X035447Y020865D01*
X035493Y020886D01*
X035540Y020902D01*
X035588Y020915D01*
X035638Y020924D01*
X035687Y020929D01*
X035738Y020930D01*
X035788Y020927D01*
X035837Y020920D01*
X035886Y020909D01*
X035934Y020894D01*
X035980Y020876D01*
X036025Y020854D01*
X036068Y020828D01*
X036109Y020799D01*
X036148Y020767D01*
X036184Y020732D01*
X036216Y020694D01*
X036246Y020654D01*
X036273Y020611D01*
X036296Y020567D01*
X036315Y020521D01*
X036331Y020473D01*
X036343Y020424D01*
X036351Y020375D01*
X036355Y020325D01*
X036355Y020275D01*
X036351Y020225D01*
X036343Y020176D01*
X036331Y020127D01*
X036315Y020079D01*
X036296Y020033D01*
X036273Y019989D01*
X036246Y019946D01*
X036216Y019906D01*
X036184Y019868D01*
X036148Y019833D01*
X036109Y019801D01*
X036068Y019772D01*
X036025Y019746D01*
X035980Y019724D01*
X035934Y019706D01*
X035886Y019691D01*
X035837Y019680D01*
X035788Y019673D01*
X035738Y019670D01*
X035687Y019671D01*
X035638Y019676D01*
X035588Y019685D01*
X035540Y019698D01*
X035493Y019714D01*
X035447Y019735D01*
X035403Y019759D01*
X035361Y019786D01*
X035321Y019816D01*
X035284Y019850D01*
X035250Y019887D01*
X035218Y019926D01*
X035190Y019967D01*
X035165Y020011D01*
X035144Y020056D01*
X035127Y020103D01*
X035113Y020151D01*
X035103Y020200D01*
X035097Y020250D01*
X035095Y020300D01*
X036495Y022500D02*
X036497Y022550D01*
X036503Y022600D01*
X036513Y022649D01*
X036527Y022697D01*
X036544Y022744D01*
X036565Y022789D01*
X036590Y022833D01*
X036618Y022874D01*
X036650Y022913D01*
X036684Y022950D01*
X036721Y022984D01*
X036761Y023014D01*
X036803Y023041D01*
X036847Y023065D01*
X036893Y023086D01*
X036940Y023102D01*
X036988Y023115D01*
X037038Y023124D01*
X037087Y023129D01*
X037138Y023130D01*
X037188Y023127D01*
X037237Y023120D01*
X037286Y023109D01*
X037334Y023094D01*
X037380Y023076D01*
X037425Y023054D01*
X037468Y023028D01*
X037509Y022999D01*
X037548Y022967D01*
X037584Y022932D01*
X037616Y022894D01*
X037646Y022854D01*
X037673Y022811D01*
X037696Y022767D01*
X037715Y022721D01*
X037731Y022673D01*
X037743Y022624D01*
X037751Y022575D01*
X037755Y022525D01*
X037755Y022475D01*
X037751Y022425D01*
X037743Y022376D01*
X037731Y022327D01*
X037715Y022279D01*
X037696Y022233D01*
X037673Y022189D01*
X037646Y022146D01*
X037616Y022106D01*
X037584Y022068D01*
X037548Y022033D01*
X037509Y022001D01*
X037468Y021972D01*
X037425Y021946D01*
X037380Y021924D01*
X037334Y021906D01*
X037286Y021891D01*
X037237Y021880D01*
X037188Y021873D01*
X037138Y021870D01*
X037087Y021871D01*
X037038Y021876D01*
X036988Y021885D01*
X036940Y021898D01*
X036893Y021914D01*
X036847Y021935D01*
X036803Y021959D01*
X036761Y021986D01*
X036721Y022016D01*
X036684Y022050D01*
X036650Y022087D01*
X036618Y022126D01*
X036590Y022167D01*
X036565Y022211D01*
X036544Y022256D01*
X036527Y022303D01*
X036513Y022351D01*
X036503Y022400D01*
X036497Y022450D01*
X036495Y022500D01*
X036495Y028900D02*
X036497Y028950D01*
X036503Y029000D01*
X036513Y029049D01*
X036527Y029097D01*
X036544Y029144D01*
X036565Y029189D01*
X036590Y029233D01*
X036618Y029274D01*
X036650Y029313D01*
X036684Y029350D01*
X036721Y029384D01*
X036761Y029414D01*
X036803Y029441D01*
X036847Y029465D01*
X036893Y029486D01*
X036940Y029502D01*
X036988Y029515D01*
X037038Y029524D01*
X037087Y029529D01*
X037138Y029530D01*
X037188Y029527D01*
X037237Y029520D01*
X037286Y029509D01*
X037334Y029494D01*
X037380Y029476D01*
X037425Y029454D01*
X037468Y029428D01*
X037509Y029399D01*
X037548Y029367D01*
X037584Y029332D01*
X037616Y029294D01*
X037646Y029254D01*
X037673Y029211D01*
X037696Y029167D01*
X037715Y029121D01*
X037731Y029073D01*
X037743Y029024D01*
X037751Y028975D01*
X037755Y028925D01*
X037755Y028875D01*
X037751Y028825D01*
X037743Y028776D01*
X037731Y028727D01*
X037715Y028679D01*
X037696Y028633D01*
X037673Y028589D01*
X037646Y028546D01*
X037616Y028506D01*
X037584Y028468D01*
X037548Y028433D01*
X037509Y028401D01*
X037468Y028372D01*
X037425Y028346D01*
X037380Y028324D01*
X037334Y028306D01*
X037286Y028291D01*
X037237Y028280D01*
X037188Y028273D01*
X037138Y028270D01*
X037087Y028271D01*
X037038Y028276D01*
X036988Y028285D01*
X036940Y028298D01*
X036893Y028314D01*
X036847Y028335D01*
X036803Y028359D01*
X036761Y028386D01*
X036721Y028416D01*
X036684Y028450D01*
X036650Y028487D01*
X036618Y028526D01*
X036590Y028567D01*
X036565Y028611D01*
X036544Y028656D01*
X036527Y028703D01*
X036513Y028751D01*
X036503Y028800D01*
X036497Y028850D01*
X036495Y028900D01*
D11*
X037925Y029700D02*
X037925Y021500D01*
X000125Y021500D01*
X000125Y029700D01*
X037925Y029700D01*
D12*
X036525Y021100D02*
X022125Y021100D01*
X022125Y012900D01*
X036525Y012900D01*
X036525Y021100D01*
D13*
X019025Y016800D03*
X019025Y015800D03*
X019025Y014800D03*
X019025Y013800D03*
X019025Y012800D03*
X019025Y011800D03*
X019025Y010800D03*
X014525Y010800D03*
X014525Y011800D03*
X013400Y011363D03*
X013400Y012363D03*
X014525Y012800D03*
X014525Y013800D03*
X014525Y014800D03*
X014525Y015800D03*
X014025Y016800D03*
X013025Y016800D03*
X012025Y016800D03*
X011025Y016800D03*
X010025Y016800D03*
X009025Y016800D03*
X008525Y015800D03*
X008525Y014800D03*
X008525Y013800D03*
X008525Y012800D03*
X008525Y011800D03*
X008525Y010800D03*
X008525Y009800D03*
X008525Y008800D03*
X008525Y007800D03*
X008525Y006800D03*
X008525Y005800D03*
X008525Y004800D03*
X013400Y007238D03*
X014525Y006800D03*
X014525Y005800D03*
X014525Y004800D03*
X014525Y007800D03*
X014525Y008800D03*
X013400Y008238D03*
X014525Y009800D03*
X016325Y016100D03*
X013525Y018800D03*
X012525Y018900D03*
X011525Y018800D03*
X010525Y018900D03*
X009525Y018800D03*
X008525Y022500D03*
X007525Y022500D03*
X006525Y022500D03*
X005525Y022500D03*
X004525Y022500D03*
X003525Y022500D03*
X002525Y022500D03*
X003455Y018800D03*
X004595Y018800D03*
X004025Y015300D03*
X004025Y014300D03*
X004025Y013300D03*
X016355Y019050D03*
X017495Y019050D03*
D14*
X005297Y009800D03*
X004509Y009072D03*
X004509Y010528D03*
X002580Y009800D03*
X033325Y015100D03*
X033325Y019100D03*
D15*
X032463Y027292D03*
X034325Y027292D03*
X036164Y027296D03*
X029164Y027096D03*
X027325Y027092D03*
X025463Y027092D03*
X022164Y027096D03*
X020325Y027092D03*
X018463Y027092D03*
X015164Y027096D03*
X013325Y027092D03*
X011463Y027092D03*
X008164Y027096D03*
X006325Y027092D03*
X004463Y027092D03*
D16*
X027165Y017800D02*
X027685Y017800D01*
X027685Y016800D02*
X027165Y016800D01*
X027165Y015800D02*
X027685Y015800D01*
X027685Y014800D02*
X027165Y014800D01*
X030165Y014800D02*
X030685Y014800D01*
X030685Y015800D02*
X030165Y015800D01*
X030165Y016800D02*
X030685Y016800D01*
X030685Y017800D02*
X030165Y017800D01*
D17*
X025925Y017200D03*
X025925Y016200D03*
X034525Y016000D03*
X034525Y015000D03*
D18*
X033925Y018100D03*
X023925Y018100D03*
D19*
X024325Y017200D03*
X032125Y016400D03*
D20*
X032125Y015400D03*
X024325Y016200D03*
D21*
X023725Y014900D03*
X025925Y014900D03*
X027725Y019900D03*
X030125Y019900D03*
M02*
